<?xml version="1.0" encoding="UTF-8"?>
<svg width="107px" height="40px" viewBox="0 0 107 40" version="1.1" xmlns="http://www.w3.org/2000/svg" xmlns:xlink="http://www.w3.org/1999/xlink">
    <g id="FS-Ready-WEB" stroke="none" stroke-width="1" fill="none" fill-rule="evenodd">
        <g id="FS-Home-Page" transform="translate(-80.000000, -80.000000)">
            <g id="FS-sygnet-+-logotyp" transform="translate(80.000000, 80.000000)">
                <path d="M52.3152618,9.68 C51.973714,9.68 51.6908739,9.77866568 51.4667332,9.976 C51.2425924,10.1733343 51.1305237,10.4746646 51.1305237,10.88 L51.1305237,11.072 L52.7155112,11.072 L52.7155112,13.2 L51.1305237,13.2 L51.1305237,19.2 L48.2327182,19.2 L48.2327182,13.2 L46.7437905,13.2 L46.7437905,11.072 L48.2327182,11.072 L48.2327182,10.848 C48.2327182,9.74932784 48.5182266,8.89066976 49.0892519,8.272 C49.6602772,7.65333024 50.4901192,7.344 51.578803,7.344 C52.1978585,7.344 52.6994993,7.41866592 53.0837406,7.568 L53.0837406,9.792 C52.7742129,9.71733296 52.5180559,9.68 52.3152618,9.68 Z M59.0691842,10.88 C59.4640989,10.88 59.7682854,10.9386661 59.9817528,11.056 L59.9817528,13.696 C59.5227978,13.4826656 59.0798596,13.376 58.6529248,13.376 C57.4361606,13.376 56.8277877,13.9573275 56.8277877,15.12 L56.8277877,19.2 L53.9299822,19.2 L53.9299822,13.408 C53.9299822,12.533329 53.8872893,11.7546701 53.8019024,11.072 L56.5235981,11.072 L56.6997079,12.432 C56.8918285,11.9306642 57.2013516,11.546668 57.6282864,11.28 C58.0552212,11.013332 58.5355157,10.88 59.0691842,10.88 Z M60.6999145,19.2 L60.6999145,11.072 L63.59772,11.072 L63.59772,19.2 L60.6999145,19.2 Z M60.6198646,7.088 L63.6457499,7.088 L63.6457499,9.696 L60.6198646,9.696 L60.6198646,7.088 Z M72.7211186,15.424 L67.6139366,15.424 C67.6673034,16.0533365 67.848748,16.5066653 68.1582757,16.784 C68.4678035,17.0613347 68.9214149,17.2 69.5191236,17.2 C69.9247117,17.2 70.3302937,17.133334 70.7358817,17 C71.1414698,16.866666 71.5096955,16.6826678 71.84057,16.448 L72.5770289,18.368 C72.1714408,18.6666682 71.6804731,18.9013325 71.1041111,19.072 C70.5277492,19.2426675 69.9513958,19.328 69.3750338,19.328 C68.4464506,19.328 67.6406233,19.157335 66.9575276,18.816 C66.2744319,18.474665 65.7514446,17.9866698 65.3885501,17.352 C65.0256555,16.7173302 64.8442109,15.9680043 64.8442109,15.104 C64.8442109,14.2826626 65.0176506,13.5493366 65.3645351,12.904 C65.7114196,12.2586634 66.1917141,11.7546685 66.8054328,11.392 C67.4191516,11.0293315 68.1209152,10.848 68.9107446,10.848 C69.6792272,10.848 70.3516394,11.018665 70.9280014,11.36 C71.5043634,11.701335 71.9473016,12.1893302 72.2568294,12.824 C72.5663571,13.4586698 72.7211186,14.1973291 72.7211186,15.04 L72.7211186,15.424 Z M68.9907944,12.832 C68.2756786,12.832 67.8274038,13.2479958 67.6459565,14.08 L70.2395725,14.08 C70.1328388,13.2479958 69.7165836,12.832 68.9907944,12.832 Z M79.3949911,10.848 C80.3555944,10.848 81.0733678,11.1386638 81.5483327,11.72 C82.0232977,12.3013362 82.2607766,13.1786608 82.2607766,14.352 L82.2607766,19.2 L79.3629711,19.2 L79.3629711,14.48 C79.3629711,13.9786642 79.2775855,13.6186678 79.1068115,13.4 C78.9360376,13.1813322 78.6692074,13.072 78.3063128,13.072 C77.8687046,13.072 77.5164887,13.2186652 77.2496544,13.512 C76.9828202,13.8053348 76.8494051,14.1919976 76.8494051,14.672 L76.8494051,19.2 L73.9515996,19.2 L73.9515996,13.408 C73.9515996,12.533329 73.9089067,11.7546701 73.8235198,11.072 L76.5452155,11.072 L76.6893053,12.272 C76.998833,11.813331 77.3830686,11.4613346 77.8420235,11.216 C78.3009784,10.9706654 78.8186291,10.848 79.3949911,10.848 Z M92.3928037,7.424 L92.3928037,19.2 L89.5430281,19.2 L89.5430281,18.096 C89.308214,18.4800019 88.9666713,18.7813322 88.5183897,19 C88.0701082,19.2186678 87.5791405,19.328 87.045472,19.328 C86.351703,19.328 85.7326568,19.1493351 85.1883149,18.792 C84.643973,18.4346649 84.219713,17.9333366 83.9155219,17.288 C83.6113309,16.6426634 83.4592376,15.8986709 83.4592376,15.056 C83.4592376,14.2239958 83.6113309,13.4880032 83.9155219,12.848 C84.219713,12.2079968 84.643973,11.7146684 85.1883149,11.368 C85.7326568,11.0213316 86.351703,10.848 87.045472,10.848 C87.5577938,10.848 88.0300833,10.9546656 88.4623548,11.168 C88.8946263,11.3813344 89.2388373,11.6693315 89.4949982,12.032 L89.4949982,7.424 L92.3928037,7.424 Z M87.9420306,17.168 C88.4543524,17.168 88.8492612,16.9893351 89.1267688,16.632 C89.4042764,16.2746649 89.5430281,15.7600034 89.5430281,15.088 C89.5430281,14.4373301 89.4016081,13.9333351 89.1187638,13.576 C88.8359195,13.2186649 88.443679,13.04 87.9420306,13.04 C87.4190355,13.04 87.0187901,13.2133316 86.7412825,13.56 C86.4637749,13.9066684 86.3250232,14.4053301 86.3250232,15.056 C86.3250232,15.7280034 86.4664432,16.2479982 86.7492875,16.616 C87.0321318,16.9840018 87.4297089,17.168 87.9420306,17.168 Z M94.007524,19.2 L94.007524,7.424 L96.9053295,7.424 L96.9053295,19.2 L94.007524,19.2 Z M106.925287,11.072 L103.194963,19.488 C102.703988,20.5866722 102.08761,21.3893308 101.34581,21.896 C100.604011,22.4026692 99.6887835,22.7199994 98.6000997,22.848 L97.9276808,20.64 C98.6748167,20.4906659 99.2351602,20.2986678 99.6087282,20.064 C99.9822961,19.8293322 100.265136,19.5040021 100.457257,19.088 L100.665387,18.64 L97.3513217,11.072 L100.361197,11.072 L102.186334,15.76 L104.075511,11.072 L106.925287,11.072 Z M50.8423441,32.6613333 C49.2199919,32.6613333 47.9392067,32.3360033 46.9999501,31.6853333 L47.736409,29.7173333 C48.1740172,30.0160015 48.6703214,30.2479992 49.2253367,30.4133333 C49.7803519,30.5786675 50.3246856,30.6613333 50.8583541,30.6613333 C51.1892286,30.6613333 51.4453856,30.6133338 51.6268329,30.5173333 C51.8082802,30.4213329 51.8990025,30.2880009 51.8990025,30.1173333 C51.8990025,29.9679993 51.8322949,29.8480005 51.6988778,29.7573333 C51.5654607,29.6666662 51.3119719,29.5840004 50.938404,29.5093333 L49.625586,29.2053333 C48.7930632,29.0346658 48.1926951,28.7653352 47.8244638,28.3973333 C47.4562326,28.0293315 47.2721197,27.5200033 47.2721197,26.8693333 C47.2721197,26.3466641 47.4268812,25.8826687 47.736409,25.4773333 C48.0459367,25.071998 48.4755334,24.7546678 49.025212,24.5253333 C49.5748905,24.2959989 50.2072782,24.1813333 50.922394,24.1813333 C51.5094294,24.1813333 52.0857827,24.2666658 52.6514713,24.4373333 C53.2171599,24.6080009 53.7454838,24.8479985 54.2364589,25.1573333 L53.46798,27.0773333 C53.0410452,26.7999986 52.6034436,26.5866674 52.1551621,26.4373333 C51.7068806,26.2879993 51.2852888,26.2133333 50.8903741,26.2133333 C50.570173,26.2133333 50.3193525,26.2639995 50.1379052,26.3653333 C49.9564579,26.4666672 49.8657357,26.6133324 49.8657357,26.8053333 C49.8657357,26.9226673 49.9191017,27.0159997 50.0258354,27.0853333 C50.1325691,27.154667 50.3353601,27.2266663 50.6342145,27.3013333 L51.9950623,27.6053333 C52.8596053,27.808001 53.4813198,28.1039981 53.8602244,28.4933333 C54.2391291,28.8826686 54.4285786,29.41333 54.4285786,30.0853333 C54.4285786,30.8853373 54.1110506,31.5146644 53.475985,31.9733333 C52.8409195,32.4320023 51.963048,32.6613333 50.8423441,32.6613333 Z M59.5975134,32.6613333 C58.2206486,32.6613333 57.1426544,32.2880037 56.3634984,31.5413333 C55.5843424,30.7946629 55.1947702,29.7760065 55.1947702,28.4853333 C55.1947702,27.6319957 55.3842197,26.8800033 55.7631243,26.2293333 C56.142029,25.5786634 56.6730212,25.0746685 57.3561168,24.7173333 C58.0392125,24.3599982 58.8290301,24.1813333 59.7255932,24.1813333 C60.3233019,24.1813333 60.9103284,24.2693325 61.4866904,24.4453333 C62.0630524,24.6213342 62.5220004,24.8586652 62.8635483,25.1573333 L62.1270894,27.1573333 C61.8389084,26.9226655 61.5027023,26.7360007 61.118461,26.5973333 C60.7342197,26.458666 60.3659939,26.3893333 60.0137727,26.3893333 C59.416064,26.3893333 58.957116,26.5599983 58.6369149,26.9013333 C58.3167138,27.2426684 58.1566156,27.74933 58.1566156,28.4213333 C58.1566156,29.1040034 58.3167138,29.6186649 58.6369149,29.9653333 C58.957116,30.3120017 59.4214006,30.4853333 60.0297827,30.4853333 C60.3820039,30.4853333 60.7475613,30.4160007 61.126466,30.2773333 C61.5053706,30.138666 61.8389084,29.9520012 62.1270894,29.7173333 L62.8635483,31.6853333 C62.5113271,31.9946682 62.0443741,32.2346658 61.4626755,32.4053333 C60.8809768,32.5760009 60.2592623,32.6613333 59.5975134,32.6613333 Z M67.7923334,32.6613333 C66.885097,32.6613333 66.0952795,32.4906684 65.4228571,32.1493333 C64.7504348,31.8079983 64.2327841,31.3173365 63.8698896,30.6773333 C63.506995,30.0373301 63.3255504,29.2853377 63.3255504,28.4213333 C63.3255504,27.557329 63.506995,26.8053365 63.8698896,26.1653333 C64.2327841,25.5253301 64.7504348,25.0346684 65.4228571,24.6933333 C66.0952795,24.3519983 66.885097,24.1813333 67.7923334,24.1813333 C68.6888965,24.1813333 69.4707092,24.3546649 70.1377948,24.7013333 C70.8048804,25.0480017 71.3198628,25.5386635 71.6827574,26.1733333 C72.045652,26.8080032 72.2270965,27.557329 72.2270965,28.4213333 C72.2270965,29.2853377 72.045652,30.0346635 71.6827574,30.6693333 C71.3198628,31.3040032 70.8048804,31.7946649 70.1377948,32.1413333 C69.4707092,32.4880017 68.6888965,32.6613333 67.7923334,32.6613333 Z M67.7923334,30.5013333 C68.8383237,30.5013333 69.361311,29.8080069 69.361311,28.4213333 C69.361311,27.7173298 69.2305642,27.197335 68.9690666,26.8613333 C68.7075691,26.5253317 68.3153286,26.3573333 67.7923334,26.3573333 C67.2586649,26.3573333 66.8584196,26.5253317 66.5915853,26.8613333 C66.3247511,27.197335 66.1913359,27.7173298 66.1913359,28.4213333 C66.1913359,29.1360036 66.3247511,29.6613317 66.5915853,29.9973333 C66.8584196,30.333335 67.2586649,30.5013333 67.7923334,30.5013333 Z M78.6127895,24.2133333 C79.0077041,24.2133333 79.3118906,24.2719994 79.525358,24.3893333 L79.525358,27.0293333 C79.0664031,26.8159989 78.6234649,26.7093333 78.1965301,26.7093333 C76.9797659,26.7093333 76.3713929,27.2906609 76.3713929,28.4533333 L76.3713929,32.5333333 L73.4735875,32.5333333 L73.4735875,26.7413333 C73.4735875,25.8666623 73.4308946,25.0880034 73.3455077,24.4053333 L76.0672034,24.4053333 L76.2433131,25.7653333 C76.4354338,25.2639975 76.7449569,24.8800013 77.1718917,24.6133333 C77.5988265,24.3466653 78.0791209,24.2133333 78.6127895,24.2133333 Z M87.5920983,28.7573333 L82.4849163,28.7573333 C82.5382831,29.3866698 82.7197277,29.8399986 83.0292554,30.1173333 C83.3387832,30.3946681 83.7923946,30.5333333 84.3901033,30.5333333 C84.7956914,30.5333333 85.2012734,30.4666673 85.6068614,30.3333333 C86.0124495,30.1999993 86.3806752,30.0160012 86.7115497,29.7813333 L87.4480085,31.7013333 C87.0424205,32.0000015 86.5514528,32.2346658 85.9750908,32.4053333 C85.3987289,32.5760009 84.8223755,32.6613333 84.2460135,32.6613333 C83.3174303,32.6613333 82.511603,32.4906684 81.8285073,32.1493333 C81.1454116,31.8079983 80.6224243,31.3200032 80.2595297,30.6853333 C79.8966352,30.0506635 79.7151906,29.3013377 79.7151906,28.4373333 C79.7151906,27.6159959 79.8886303,26.8826699 80.2355148,26.2373333 C80.5823993,25.5919968 81.0626938,25.0880018 81.6764125,24.7253333 C82.2901313,24.3626649 82.9918949,24.1813333 83.7817243,24.1813333 C84.5502069,24.1813333 85.2226191,24.3519983 85.7989811,24.6933333 C86.3753431,25.0346684 86.8182813,25.5226635 87.127809,26.1573333 C87.4373368,26.7920032 87.5920983,27.5306625 87.5920983,28.3733333 L87.5920983,28.7573333 Z M83.8617741,26.1653333 C83.1466583,26.1653333 82.6983835,26.5813292 82.5169362,27.4133333 L85.1105522,27.4133333 C85.0038185,26.5813292 84.5875633,26.1653333 83.8617741,26.1653333 Z" id="friendly-score-copy-7" fill="#2B2B2B"></path>
                <g id="Group-2-Copy-54">
                    <path d="M3,0 L37.0249377,4.4408921e-16 C38.6817919,-4.27501655e-15 40.0249377,1.34314575 40.0249377,3 L40.0249377,30.0006958 L30.0188742,40 L3,40 C1.34314575,40 2.02906125e-16,38.6568542 0,37 L4.4408921e-16,3 C2.41183085e-16,1.34314575 1.34314575,3.04359188e-16 3,0 Z" id="Rectangle-Copy-19" fill="#E91171"></path>
                    <path d="M19.1119077,14.5333333 C18.6849729,14.5333333 18.3314228,14.6566654 18.0512469,14.9033333 C17.7710709,15.1500012 17.630985,15.5266641 17.630985,16.0333333 L17.630985,16.2733333 L19.6122195,16.2733333 L19.6122195,18.9333333 L17.630985,18.9333333 L17.630985,26.4333333 L14.0087282,26.4333333 L14.0087282,18.9333333 L12.1475686,18.9333333 L12.1475686,16.2733333 L14.0087282,16.2733333 L14.0087282,15.9933333 C14.0087282,14.6199931 14.3656136,13.5466705 15.0793953,12.7733333 C15.7931769,11.9999961 16.8304795,11.6133333 18.1913342,11.6133333 C18.9651535,11.6133333 19.5922046,11.7066657 20.0725062,11.8933333 L20.0725062,14.6733333 C19.6855966,14.5799995 19.3654003,14.5333333 19.1119077,14.5333333 Z M24.9755611,26.5933333 C22.9476208,26.5933333 21.3466393,26.1866707 20.1725686,25.3733333 L21.0931421,22.9133333 C21.6401524,23.2866685 22.2605327,23.5766656 22.9543017,23.7833333 C23.6480708,23.990001 24.3284879,24.0933333 24.9955736,24.0933333 C25.4091667,24.0933333 25.729363,24.0333339 25.9561721,23.9133333 C26.1829812,23.7933327 26.296384,23.6266677 26.296384,23.4133333 C26.296384,23.2266657 26.2129996,23.0766672 26.0462282,22.9633333 C25.8794568,22.8499994 25.5625959,22.7466671 25.0956359,22.6533333 L23.4546135,22.2733333 C22.4139599,22.0599989 21.6634998,21.7233356 21.2032107,21.2633333 C20.7429216,20.803331 20.5127805,20.1666707 20.5127805,19.3533333 C20.5127805,18.6999967 20.7062325,18.1200025 21.0931421,17.6133333 C21.4800518,17.1066641 22.0170477,16.7100014 22.7041459,16.4233333 C23.3912441,16.1366652 24.1817287,15.9933333 25.0756234,15.9933333 C25.8094176,15.9933333 26.5298593,16.0999989 27.2369701,16.3133333 C27.9440808,16.5266677 28.6044857,16.8266647 29.2182045,17.2133333 L28.257606,19.6133333 C27.7239375,19.2666649 27.1769355,19.0000009 26.6165835,18.8133333 C26.0562316,18.6266657 25.5292419,18.5333333 25.0355985,18.5333333 C24.6353471,18.5333333 24.3218216,18.596666 24.0950125,18.7233333 C23.8682034,18.8500006 23.7548005,19.0333321 23.7548005,19.2733333 C23.7548005,19.4200007 23.8215081,19.5366662 23.9549252,19.6233333 C24.0883423,19.7100004 24.341831,19.7999995 24.715399,19.8933333 L26.4164589,20.2733333 C27.4971376,20.5266679 28.2742807,20.8966642 28.7479115,21.3833333 C29.2215423,21.8700024 29.4583541,22.5333291 29.4583541,23.3733333 C29.4583541,24.3733383 29.0614441,25.1599971 28.2676122,25.7333333 C27.4737803,26.3066695 26.3764409,26.5933333 24.9755611,26.5933333 Z" id="fs" fill="#FFFFFF"></path>
                    <polygon id="Rectangle-Copy-20" fill="#7038A7" transform="translate(35.021820, 35.000000) scale(1, -1) translate(-35.021820, -35.000000) " points="30.0187032 30 40.0249377 40 30.0187032 40"></polygon>
                </g>
            </g>
        </g>
    </g>
</svg>
